# xmcd CD database file
#
# Track frame offsets:
#	150
#	33192
#	88545
#	139424
#	189925
#	203699
#	247996
#
# Disc length: 3738 seconds
#
# Revision: 0
# Processed by: cddbd v1.5.2PL0 Copyright (c) Steve Scherf et al.
# Submitted via: CDex 1.51
#
DISCID=530e9807
DTITLE=The Gordon Beck Quartet - Seven steps to heaven
DYEAR=2005
DGENRE=Jazz
TTITLE0=Backwards bop
TTITLE1=Gone with the wind
TTITLE2=Ju ju
TTITLE3=Isotope
TTITLE4=Quiet now
TTITLE5=Solar
TTITLE6=Seven steps to heaven
EXTD=YEAR: 2005
EXTT0=
EXTT1=
EXTT2=
EXTT3=
EXTT4=
EXTT5=
EXTT6=
PLAYORDER=
